{  "asset": {    "version": "2.0",    "generator": "THREE.GLTFExporter"  },  "scenes": [    {      "name": "AuxScene",      "nodes": [        3      ]    }  ],  "scene": 0,  "nodes": [    {      "mesh": 0    },    {      "mesh": 1    },    {      "mesh": 2    },    {      "children": [        0,        1,        2      ]    }  ],  "bufferViews": [    {      "buffer": 0,      "byteOffset": 0,      "byteLength": 142848,      "target": 34962,      "byteStride": 12    },    {      "buffer": 0,      "byteOffset": 142848,      "byteLength": 142848,      "target": 34962,      "byteStride": 12    },    {      "buffer": 0,      "byteOffset": 285696,      "byteLength": 95232,      "target": 34962,      "byteStride": 8    },    {      "buffer": 0,      "byteOffset": 380928,      "byteLength": 142848,      "target": 34962,      "byteStride": 12    },    {      "buffer": 0,      "byteOffset": 523776,      "byteLength": 142848,      "target": 34962,      "byteStride": 12    },    {      "buffer": 0,      "byteOffset": 666624,      "byteLength": 95232,      "target": 34962,      "byteStride": 8    },    {      "buffer": 0,      "byteOffset": 761856,      "byteLength": 142848,      "target": 34962,      "byteStride": 12    },    {      "buffer": 0,      "byteOffset": 904704,      "byteLength": 142848,      "target": 34962,      "byteStride": 12    },    {      "buffer": 0,      "byteOffset": 1047552,      "byteLength": 95232,      "target": 34962,      "byteStride": 8    }  ],  "buffers": [    {      "byteLength": 1142784,      "uri": "data:application/octet-stream;base64,"    }  ],  "accessors": [    {      "bufferView": 0,      "componentType": 5126,      "count": 11904,      "max": [        58.73786544799805,        58.823455810546875,        59.0346565246582      ],      "min": [        -58.737884521484375,        -58.82339096069336,        -59.0346565246582      ],      "type": "VEC3"    },    {      "bufferView": 1,      "componentType": 5126,      "count": 11904,      "max": [        0.9988097548484802,        0.999755859375,        0.9989013075828552      ],      "min": [        -0.9988097548484802,        -0.999755859375,        -0.9989013075828552      ],      "type": "VEC3"    },    {      "bufferView": 2,      "componentType": 5126,      "count": 11904,      "max": [        1,        1      ],      "min": [        0,        0      ],      "type": "VEC2"    },    {      "bufferView": 3,      "componentType": 5126,      "count": 11904,      "max": [        59.344566345214844,        59.11104202270508,        59.13713073730469      ],      "min": [        -59.34461975097656,        -59.110965728759766,        -59.13711166381836      ],      "type": "VEC3"    },    {      "bufferView": 4,      "componentType": 5126,      "count": 11904,      "max": [        0.99993896484375,        0.9998779296875,        0.99957275390625      ],      "min": [        -0.99993896484375,        -0.9998779296875,        -0.99957275390625      ],      "type": "VEC3"    },    {      "bufferView": 5,      "componentType": 5126,      "count": 11904,      "max": [        1,        1      ],      "min": [        0,        0      ],      "type": "VEC2"    },    {      "bufferView": 6,      "componentType": 5126,      "count": 11904,      "max": [        59.37782287597656,        59.37783432006836,        60      ],      "min": [        -59.377830505371094,        -59.377830505371094,        -60      ],      "type": "VEC3"    },    {      "bufferView": 7,      "componentType": 5126,      "count": 11904,      "max": [        1,        1,        1      ],      "min": [        -1,        -1,        -1      ],      "type": "VEC3"    },    {      "bufferView": 8,      "componentType": 5126,      "count": 11904,      "max": [        1,        1      ],      "min": [        0,        0      ],      "type": "VEC2"    }  ],  "materials": [    {      "pbrMetallicRoughness": {        "baseColorFactor": [          0.6038273388475408,          0.6038273388475408,          0.6038273388475408,          1        ],        "metallicFactor": 0.5,        "roughnessFactor": 0.5      },      "doubleSided": true,      "name": "mat0"    },    {      "pbrMetallicRoughness": {        "baseColorFactor": [          0.6038273388475408,          0.6038273388475408,          0.6038273388475408,          1        ],        "metallicFactor": 0.5,        "roughnessFactor": 0.5      },      "doubleSided": true,      "name": "mat1"    },    {      "pbrMetallicRoughness": {        "baseColorFactor": [          0.6038273388475408,          0.6038273388475408,          0.6038273388475408,          1        ],        "metallicFactor": 0.5,        "roughnessFactor": 0.5      },      "doubleSided": true,      "name": "mat2"    }  ],  "meshes": [    {      "primitives": [        {          "mode": 4,          "attributes": {            "POSITION": 0,            "NORMAL": 1,            "TEXCOORD_0": 2          },          "material": 0        }      ]    },    {      "primitives": [        {          "mode": 4,          "attributes": {            "POSITION": 3,            "NORMAL": 4,            "TEXCOORD_0": 5          },          "material": 1        }      ]    },    {      "primitives": [        {          "mode": 4,          "attributes": {            "POSITION": 6,            "NORMAL": 7,            "TEXCOORD_0": 8          },          "material": 2        }      ]    }  ]}